# xmcd
#
# Track frame offsets:
#        150
#        19429
#        34693
#        53920
#        68247
#        82944
#        100132
#        119471
#        134733
#        153968
#        168296
#        182993
#
# Disc length: 2669 seconds
#
# Revision: 0
# Processed by: cddbd v1.5.2PL0 Copyright (c) Steve Scherf et al.
# Submitted via: CDGFix 3.8
#
DISCID=a10a6b0c
DTITLE=Shannon Lawson - CB20603
DYEAR=1900
DGENRE=Karaoke
TTITLE0=Shannon Lawson - Dream Your Way To Me (Vocals)
TTITLE1=Shannon Lawson - Everybody Wants (Something They Can't Have) (Vocals)
TTITLE2=Shannon Lawson - Goodbye On A Bad Day (Vocals)
TTITLE3=Shannon Lawson - Just Like A Redneck (Vocals)
TTITLE4=Shannon Lawson - Smokin' Grass (Vocals)
TTITLE5=Shannon Lawson - Superstar (Vocals)
TTITLE6=Shannon Lawson - Dream Your Way To Me
TTITLE7=Shannon Lawson - Everybody Wants (Something They Can't Have)
TTITLE8=Shannon Lawson - Goodbye On A Bad Day
TTITLE9=Shannon Lawson - Just Like A Redneck
TTITLE10=Shannon Lawson - Smokin' Grass
TTITLE11=Shannon Lawson - Superstar
EXTD=
EXTT0=
EXTT1=
EXTT2=
EXTT3=
EXTT4=
EXTT5=
EXTT6=
EXTT7=
EXTT8=
EXTT9=
EXTT10=
EXTT11=
PLAYORDER=
